<svg width="10" height="6" viewBox="0 0 10 6" fill="none" xmlns="http://www.w3.org/2000/svg">
<path d="M4.63493 5.49129C4.44013 5.49112 4.25338 5.41199 4.11572 5.27129L0.197192 1.27129C0.0674101 1.12912 -0.00324393 0.941071 0.000114468 0.74677C0.00347286 0.552469 0.0805815 0.367084 0.215196 0.229671C0.34981 0.0922575 0.53142 0.0135448 0.721763 0.0101166C0.912107 0.00668838 1.09632 0.0788123 1.2356 0.211292L4.63493 3.68029L8.03426 0.210292C8.17289 0.0737385 8.35852 -0.00176942 8.55116 3.14898e-05C8.7438 0.0018324 8.92805 0.080798 9.06421 0.21992C9.20037 0.359042 9.27755 0.54719 9.27913 0.743839C9.28071 0.940488 9.20657 1.1299 9.07267 1.27129L5.15413 5.27129C5.01648 5.41199 4.82972 5.49112 4.63493 5.49129Z" fill="#3F2756"/>
</svg>
