<svg width="16" height="16" viewBox="0 0 16 16" fill="none" xmlns="http://www.w3.org/2000/svg">
<path d="M4.4448 16C3.26631 15.9989 2.13642 15.5302 1.3031 14.6969C0.469783 13.8636 0.00112963 12.7337 0 11.5552L0 4.4448C0.00141143 3.2664 0.470155 2.13667 1.30341 1.30341C2.13667 0.470155 3.2664 0.00141143 4.4448 0L11.5552 0C12.7336 0.00141143 13.8633 0.470155 14.6966 1.30341C15.5298 2.13667 15.9986 3.2664 16 4.4448V11.5563C15.9986 12.7346 15.5298 13.8642 14.6965 14.6973C13.8632 15.5304 12.7335 15.9989 11.5552 16H4.4448ZM3.5552 8C3.55499 8.87914 3.81549 9.73861 4.30377 10.4697C4.79204 11.2008 5.48615 11.7706 6.29831 12.1072C7.11047 12.4438 8.00421 12.532 8.86648 12.3606C9.72876 12.1892 10.5208 11.766 11.1426 11.1444C11.7643 10.5228 12.1877 9.73083 12.3593 8.8686C12.5309 8.00636 12.4429 7.11261 12.1066 6.30036C11.7702 5.48812 11.2005 4.79387 10.4695 4.30542C9.73854 3.81698 8.87914 3.55627 8 3.55627C6.82178 3.55768 5.69221 4.02627 4.85899 4.8593C4.02576 5.69233 3.55689 6.82178 3.5552 8ZM12.4448 2.66667C12.445 2.84231 12.4973 3.01395 12.595 3.15991C12.6927 3.30586 12.8315 3.41958 12.9938 3.4867C13.1561 3.55382 13.3347 3.57133 13.5069 3.53701C13.6792 3.50269 13.8374 3.41809 13.9616 3.29389C14.0858 3.16969 14.1704 3.01146 14.2047 2.83921C14.2391 2.66695 14.2216 2.48838 14.1544 2.32607C14.0873 2.16375 13.9736 2.02497 13.8276 1.92726C13.6817 1.82954 13.51 1.77728 13.3344 1.77707C13.0985 1.77707 12.8722 1.87079 12.7054 2.03762C12.5385 2.20446 12.4448 2.43073 12.4448 2.66667ZM5.33333 8C5.33333 7.47258 5.48973 6.95701 5.78275 6.51848C6.07577 6.07995 6.49224 5.73815 6.97951 5.53632C7.46678 5.33449 8.00296 5.28168 8.52024 5.38457C9.03752 5.48747 9.51268 5.74144 9.88562 6.11438C10.2586 6.48732 10.5125 6.96248 10.6154 7.47976C10.7183 7.99704 10.6655 8.53322 10.4637 9.02049C10.2618 9.50776 9.92005 9.92424 9.48152 10.2173C9.04299 10.5103 8.52742 10.6667 8 10.6667C7.29276 10.6667 6.61448 10.3857 6.11438 9.88562C5.61428 9.38552 5.33333 8.70724 5.33333 8Z" fill="white"/>
</svg>
