<svg width="21" height="26" viewBox="0 0 21 26" fill="none" xmlns="http://www.w3.org/2000/svg">
<path d="M9.83665 25.6251C8.06888 24.3429 6.43348 22.8755 4.95622 21.2463C3.63838 19.8296 2.50192 18.2434 1.57493 16.5266C0.585895 14.7428 0.0442669 12.7307 4.78684e-05 10.6743C-0.00407687 9.27378 0.258401 7.88609 0.773199 6.59091C1.288 5.29572 2.04471 4.11849 2.99976 3.12661C3.94586 2.13309 5.07436 1.34485 6.31817 0.80801C7.56198 0.271175 8.8964 -0.00352563 10.2439 3.41595e-05C11.5914 -0.0030185 12.926 0.271944 14.1697 0.80875C15.4135 1.34556 16.5417 2.13351 17.4881 3.12661C18.4425 4.11876 19.1978 5.29618 19.7118 6.59137C20.2259 7.88656 20.4884 9.27407 20.4836 10.6743C20.4391 12.7303 19.8985 14.742 18.9115 16.5266C17.9851 18.2434 16.8491 19.8296 15.5317 21.2463C14.0523 22.8738 12.4166 24.341 10.6498 25.6251C10.529 25.7095 10.3869 25.7546 10.2411 25.7547C10.0968 25.7542 9.95603 25.7091 9.83665 25.6251ZM4.03873 4.19555C3.21833 5.04652 2.56858 6.05695 2.12657 7.1688C1.68456 8.28065 1.45791 9.472 1.46203 10.6743C1.46203 17.0122 8.46301 22.7198 10.2425 24.0675C11.7659 22.9078 13.1868 21.6094 14.487 20.188C15.7121 18.8679 16.77 17.3913 17.6339 15.794C18.5011 14.2344 18.9778 12.4755 19.023 10.6766C19.0267 9.47455 18.8028 8.28357 18.3613 7.17185C17.9199 6.06013 17.2698 5.04949 16.4506 4.19777C15.6406 3.34581 14.6749 2.6697 13.6095 2.20895C12.5441 1.7482 11.4014 1.51208 10.2468 1.51445C9.09219 1.51117 7.94846 1.74635 6.88267 2.20618C5.81688 2.66601 4.84943 3.3413 4.03873 4.1925V4.19555ZM5.85228 10.6175C5.85344 9.41231 6.31683 8.25689 7.13991 7.40471C7.96299 6.55253 9.07851 6.07322 10.2425 6.07201C11.4069 6.07201 12.5232 6.55098 13.3466 7.40341C14.1699 8.25585 14.6328 9.41194 14.6328 10.6175C14.6328 11.823 14.1699 12.9792 13.3466 13.8316C12.5232 14.6841 11.4069 15.1629 10.2425 15.1629C9.07839 15.1613 7.96274 14.6816 7.13991 13.8289C6.31709 12.9763 5.85429 11.8205 5.85371 10.6152L5.85228 10.6175ZM7.31569 10.6175C7.31724 11.4207 7.62604 12.1906 8.17459 12.7585C8.72314 13.3265 9.46675 13.6462 10.2425 13.6478C11.0188 13.6478 11.763 13.3286 12.3119 12.7603C12.8608 12.192 13.1693 11.4212 13.1693 10.6175C13.1693 9.81378 12.8608 9.04306 12.3119 8.47477C11.763 7.90647 11.0188 7.58717 10.2425 7.58717C9.46739 7.58917 8.72419 7.90883 8.17602 8.47624C7.62785 9.04366 7.31925 9.81271 7.31712 10.6152L7.31569 10.6175Z" fill="white"/>
</svg>
