<svg width="16" height="16" viewBox="0 0 16 16" fill="none" xmlns="http://www.w3.org/2000/svg">
<path d="M13.1339 0H2.7872C2.04906 0.0105469 1.34431 0.309331 0.823515 0.832521C0.302717 1.35571 0.00716477 2.06182 0 2.8L0 13.28C0.0239102 14.0052 0.327148 14.6931 0.846353 15.2C1.36556 15.7069 2.06056 15.9935 2.78613 16H8.3584V10.32H6.76587V7.92H8.3584V6.4C8.35657 6.01176 8.4315 5.62699 8.57887 5.26781C8.72624 4.90863 8.94316 4.58212 9.21714 4.30704C9.49112 4.03197 9.81677 3.81376 10.1754 3.66497C10.534 3.51617 10.9184 3.43971 11.3067 3.44H13.2171V5.84H11.3067C11.1405 5.85101 10.9841 5.92197 10.8664 6.03969C10.7486 6.15742 10.6777 6.31388 10.6667 6.48V8H12.736V10.4H10.7467V16H13.2139C13.9518 15.9892 14.6563 15.6903 15.1769 15.1671C15.6974 14.644 15.9928 13.938 16 13.2V2.8C15.9617 2.05846 15.6455 1.35856 15.1143 0.839675C14.5832 0.320792 13.8761 0.0209996 13.1339 0Z" fill="white"/>
</svg>
