<svg width="16" height="16" viewBox="0 0 16 16" fill="none" xmlns="http://www.w3.org/2000/svg">
<path d="M16 1.92007C15.4017 2.25409 14.7655 2.46997 14.1141 2.56C14.7886 2.04937 15.2956 1.25542 15.5445 0.320232C14.9018 0.791683 14.1972 1.1167 13.4635 1.28013C13.0169 0.690827 12.4404 0.28052 11.8071 0.101233C11.1737 -0.0780541 10.512 -0.018246 9.90591 0.273074C9.29979 0.564394 8.77653 1.07411 8.40247 1.73759C8.0284 2.40106 7.82039 3.18843 7.8048 3.99985C7.79412 4.32197 7.81598 4.64448 7.86987 4.95975C6.56719 4.88815 5.2913 4.47347 4.12572 3.74288C2.96014 3.01228 1.93116 1.98224 1.10613 0.72019C0.819254 1.35582 0.662775 2.07035 0.650667 2.79998C0.649519 3.46384 0.779466 4.11781 1.02899 4.70387C1.2785 5.28992 1.63988 5.78996 2.08107 6.15963C1.57888 6.09576 1.09228 5.90528 0.650667 5.59969V5.67968C0.658617 6.62822 0.928313 7.54424 1.41418 8.27297C1.90005 9.0017 2.5723 9.49845 3.31733 9.67927C3.04099 9.77157 2.75729 9.82522 2.47147 9.83925C2.2527 9.84862 2.03391 9.82173 1.8208 9.75926C2.02721 10.5706 2.43455 11.279 2.98402 11.7823C3.53349 12.2855 4.19668 12.5575 4.87787 12.559C3.71454 13.7166 2.26771 14.338 0.7808 14.3188C0.518898 14.332 0.256688 14.3051 0 14.2388C1.50721 15.398 3.24365 16.0075 5.01333 15.9986C6.23587 16.0223 7.44998 15.7419 8.58502 15.1737C9.72006 14.6056 10.7534 13.761 11.6249 12.6891C12.4964 11.6172 13.1886 10.3395 13.6614 8.93011C14.1341 7.52077 14.378 6.008 14.3787 4.4798V3.91986C15.025 3.40223 15.5773 2.72098 16 1.92007Z" fill="white"/>
</svg>
