<svg width="17" height="17" viewBox="0 0 17 17" fill="none" xmlns="http://www.w3.org/2000/svg">
<path d="M15.2899 16.7L11.1899 12.5999C9.98233 13.5091 8.51163 14.0007 7 14C5.14413 13.9979 3.36479 13.2596 2.05249 11.9473C0.740194 10.635 0.00211736 8.85587 0 7C0.00211736 5.14413 0.740194 3.36479 2.05249 2.05249C3.36479 0.740194 5.14413 0.00211736 7 0C8.85587 0.00211736 10.6351 0.740194 11.9474 2.05249C13.2597 3.36479 13.9979 5.14413 14 7C14.0005 8.51161 13.5091 9.98226 12.6 11.1899L16.7 15.29C16.8874 15.4776 16.9927 15.7317 16.9927 15.9968C16.9927 16.262 16.8874 16.5163 16.7 16.7039C16.5125 16.8914 16.2581 16.9968 15.9929 16.9968C15.7285 16.9947 15.4758 16.888 15.2899 16.7ZM1.99695 6.99292C1.99827 8.3186 2.5255 9.5897 3.46289 10.5271C4.40029 11.4645 5.67127 11.9916 6.99695 11.9929C8.32262 11.9916 9.59361 11.4645 10.531 10.5271C11.4684 9.5897 11.9956 8.3186 11.9969 6.99292C11.9956 5.66724 11.4684 4.39614 10.531 3.45874C9.59361 2.52135 8.32262 1.99424 6.99695 1.99292C5.67135 1.99451 4.40047 2.52189 3.46313 3.45923C2.5258 4.39657 1.99854 5.66733 1.99695 6.99292Z" fill="black"/>
</svg>
