<svg width="121" height="121" viewBox="0 0 121 121" fill="none" xmlns="http://www.w3.org/2000/svg">
<path opacity="0.5" d="M60.5001 121C56.4048 121.001 52.3198 120.59 48.3071 119.771C40.5687 118.187 33.2179 115.095 26.6741 110.671C16.9465 104.104 9.33224 94.8573 4.75413 84.0503C3.20724 80.3902 2.02648 76.586 1.22913 72.6933C-0.40971 64.6472 -0.40971 56.3533 1.22913 48.3073C2.81314 40.5689 5.90528 33.2181 10.3291 26.6743C16.8964 16.9466 26.1439 9.33242 36.9511 4.75427C40.6109 3.2074 44.4147 2.02664 48.3071 1.22927C56.3532 -0.409758 64.6471 -0.409758 72.6931 1.22927C80.4316 2.81316 87.7824 5.90531 94.3261 10.3293C104.053 16.8955 111.667 26.1416 116.245 36.9473C117.792 40.607 118.973 44.4109 119.77 48.3033C121.409 56.3493 121.409 64.6432 119.77 72.6893C118.186 80.4277 115.094 87.7785 110.67 94.3223C104.104 104.049 94.8578 111.663 84.0521 116.241C80.3924 117.788 76.5885 118.969 72.6961 119.766C68.6826 120.586 64.5966 121 60.5001 121ZM48.4171 36.3333V84.6673L84.6671 60.5003L48.4171 36.3333Z" fill="white"/>
</svg>
