<svg width="16" height="14" viewBox="0 0 16 14" fill="none" xmlns="http://www.w3.org/2000/svg">
<path d="M8.00034 14C7.95016 14 2.9822 13.9953 1.74584 13.5837C1.41454 13.4729 1.11084 13.2549 0.863834 12.9507C0.616831 12.6464 0.434725 12.2659 0.334895 11.8456C0.104582 10.2538 -0.00740658 8.6376 0.000379671 7.01866C-0.00585732 5.41156 0.106126 3.80729 0.334895 2.22722C0.425508 1.79296 0.603645 1.39697 0.851316 1.07908C1.09899 0.761195 1.40751 0.53261 1.74584 0.416308C2.9822 0.00465224 7.95016 0 8.00034 0C8.05052 0 13.0185 -1.64133e-05 14.2548 0.379901C14.5931 0.496428 14.9015 0.725223 15.1491 1.04328C15.3966 1.36133 15.5745 1.75744 15.665 2.19175C15.8957 3.78344 16.0077 5.3997 15.9996 7.01866C16.0039 8.61329 15.8918 10.2049 15.665 11.7728C15.5746 12.2071 15.3967 12.6031 15.1492 12.921C14.9016 13.2389 14.5931 13.4675 14.2548 13.5837C13.0185 13.9953 8.05125 14 8.00034 14ZM6.36398 3.96438V10.0683L10.5458 7.01587L6.36398 3.96344V3.96438Z" fill="white"/>
</svg>
