<svg width="21" height="18" viewBox="0 0 21 18" fill="none" xmlns="http://www.w3.org/2000/svg">
<path d="M2.63387 17.5328C1.93301 17.5284 1.26254 17.235 0.768873 16.7167C0.275207 16.1985 -0.00116567 15.4976 8.27576e-06 14.7675V2.76528C-0.00174479 2.03503 0.275082 1.33387 0.768873 0.815508C1.26266 0.297142 1.93283 0.00383161 2.63387 0H17.854C18.555 0.00363061 19.2265 0.296819 19.7204 0.815229C20.2142 1.33364 20.4898 2.03497 20.4878 2.76528V14.7675C20.4892 15.4977 20.2127 16.1987 19.719 16.7169C19.2252 17.2352 18.5549 17.5286 17.854 17.5328H2.63387ZM1.46342 14.7675C1.46217 14.929 1.49101 15.0891 1.54917 15.2388C1.60733 15.3884 1.69341 15.5247 1.80212 15.6398C1.91084 15.7549 2.04098 15.8465 2.1837 15.9095C2.32642 15.9725 2.47888 16.0056 2.63387 16.0069H17.854C18.0089 16.0056 18.1614 15.9725 18.3041 15.9095C18.4468 15.8465 18.577 15.7549 18.6857 15.6398C18.7944 15.5247 18.8805 15.3884 18.9387 15.2388C18.9968 15.0891 19.0257 14.929 19.0244 14.7675V4.24929L10.6684 10.4292C10.5444 10.521 10.396 10.5702 10.2439 10.5702C10.0918 10.5702 9.94342 10.521 9.81946 10.4292L1.46342 4.24929V14.7675ZM10.2439 8.87503L18.9772 2.41619C18.9085 2.16034 18.7615 1.93485 18.5585 1.77402C18.3555 1.61319 18.1076 1.52587 17.8525 1.52523H2.63387C2.37901 1.52662 2.13074 1.61424 1.92789 1.77495C1.72503 1.93567 1.5785 2.16073 1.50915 2.41619L10.2439 8.87503Z" fill="white"/>
</svg>
