<svg width="24" height="19" viewBox="0 0 24 19" fill="none" xmlns="http://www.w3.org/2000/svg">
<path d="M3.2 18.5007C2.36983 18.5176 1.56683 18.2046 0.966989 17.6305C0.367151 17.0563 0.0194152 16.2678 0 15.4377L0 3.06265C0.0196757 2.23271 0.367525 1.44442 0.967335 0.870473C1.56715 0.29653 2.37 -0.0162541 3.2 0.0006513H20.8C21.63 -0.0162541 22.4329 0.29653 23.0327 0.870473C23.6325 1.44442 23.9803 2.23271 24 3.06265V15.4377C23.9806 16.2678 23.6328 17.0563 23.033 17.6305C22.4332 18.2046 21.6302 18.5176 20.8 18.5007H3.2ZM2 15.4377C2.02331 15.7358 2.16144 16.0132 2.38529 16.2115C2.60914 16.4098 2.90123 16.5135 3.2 16.5007H20.8C21.0988 16.5135 21.3909 16.4098 21.6147 16.2115C21.8386 16.0132 21.9767 15.7358 22 15.4377V7.01965L12.606 14.1787C12.4318 14.3113 12.2189 14.3832 12 14.3832C11.7811 14.3832 11.5682 14.3113 11.394 14.1787L2 7.01965V15.4377ZM12 12.1257L22 4.50065V3.06265C21.9767 2.7646 21.8385 2.48725 21.6146 2.28912C21.3908 2.09098 21.0987 1.98755 20.8 2.00065H3.2C2.90132 1.98755 2.60924 2.09098 2.38536 2.28912C2.16148 2.48725 2.02331 2.7646 2 3.06265V4.50065L12 12.1257Z" fill="#C27DF8"/>
</svg>
